REM DIRINDEX 1\3,1\4,1\5,1\6,1\2\7,1\2\8,1\2\9,1\2\10,1\2\11
REM DIRNAME folder01,folder02,folder03,folder04,folder05,folder06,folder07,folder08,folder09,folder10,folder11
TITLE ""
FILE "DISC5Track07.mp3" MP3
  TRACK 01 AUDIO
    TITLE "0:"
    INDEX 01 00:00:00
  TRACK 02 AUDIO
    TITLE "3:cjc021_4991"
    INDEX 01 00:00:25
  TRACK 03 AUDIO
    TITLE "0:"
    INDEX 01 00:01:46
  TRACK 04 AUDIO
    TITLE "4:cjc021_4992"
    INDEX 01 00:03:23
  TRACK 05 AUDIO
    TITLE "0:"
    INDEX 01 00:04:44
  TRACK 06 AUDIO
    TITLE "5:cjc021_4993"
    INDEX 01 00:05:05
  TRACK 07 AUDIO
    TITLE "0:"
    INDEX 01 00:07:35
  TRACK 08 AUDIO
    TITLE "3:cjc021_4994"
    INDEX 01 00:08:70
  TRACK 09 AUDIO
    TITLE "0:"
    INDEX 01 00:10:23
  TRACK 10 AUDIO
    TITLE "4:cjc021_4995"
    INDEX 01 00:12:01
  TRACK 11 AUDIO
    TITLE "0:"
    INDEX 01 00:13:28
  TRACK 12 AUDIO
    TITLE "5:cjc021_4996"
    INDEX 01 00:13:67
  TRACK 13 AUDIO
    TITLE "0:"
    INDEX 01 00:16:26
  TRACK 14 AUDIO
    TITLE "3:cjc021_4997"
    INDEX 01 00:17:63
  TRACK 15 AUDIO
    TITLE "0:"
    INDEX 01 00:19:16
  TRACK 16 AUDIO
    TITLE "4:cjc021_4998"
    INDEX 01 00:20:71
  TRACK 17 AUDIO
    TITLE "0:"
    INDEX 01 00:22:23
  TRACK 18 AUDIO
    TITLE "5:cjc021_4999"
    INDEX 01 00:22:62
  TRACK 19 AUDIO
    TITLE "0:"
    INDEX 01 00:25:23
  TRACK 20 AUDIO
    TITLE "3:cjc021_5000"
    INDEX 01 00:26:60
  TRACK 21 AUDIO
    TITLE "0:"
    INDEX 01 00:27:61
  TRACK 22 AUDIO
    TITLE "4:cjc021_5001"
    INDEX 01 00:29:38
  TRACK 23 AUDIO
    TITLE "0:"
    INDEX 01 00:30:42
  TRACK 24 AUDIO
    TITLE "5:cjc021_5002"
    INDEX 01 00:31:02
  TRACK 25 AUDIO
    TITLE "0:"
    INDEX 01 00:33:69
  TRACK 26 AUDIO
    TITLE "3:cjc021_5003"
    INDEX 01 00:35:29
  TRACK 27 AUDIO
    TITLE "0:"
    INDEX 01 00:36:29
  TRACK 28 AUDIO
    TITLE "4:cjc021_5004"
    INDEX 01 00:38:02
  TRACK 29 AUDIO
    TITLE "0:"
    INDEX 01 00:38:73
  TRACK 30 AUDIO
    TITLE "5:cjc021_5005"
    INDEX 01 00:39:35
  TRACK 31 AUDIO
    TITLE "0:"
    INDEX 01 00:43:15
  TRACK 32 AUDIO
    TITLE "3:cjc021_5006"
    INDEX 01 00:44:54
  TRACK 33 AUDIO
    TITLE "0:"
    INDEX 01 00:46:13
  TRACK 34 AUDIO
    TITLE "4:cjc021_5007"
    INDEX 01 00:47:68
  TRACK 35 AUDIO
    TITLE "0:"
    INDEX 01 00:49:29
  TRACK 36 AUDIO
    TITLE "5:cjc021_5008"
    INDEX 01 00:49:67
  TRACK 37 AUDIO
    TITLE "0:"
    INDEX 01 00:52:73
  TRACK 38 AUDIO
    TITLE "3:cjc021_5009"
    INDEX 01 00:54:34
  TRACK 39 AUDIO
    TITLE "0:"
    INDEX 01 00:55:46
  TRACK 40 AUDIO
    TITLE "4:cjc021_5010"
    INDEX 01 00:57:21
  TRACK 41 AUDIO
    TITLE "0:"
    INDEX 01 00:58:34
  TRACK 42 AUDIO
    TITLE "5:cjc021_5011"
    INDEX 01 00:58:69
  TRACK 43 AUDIO
    TITLE "0:"
    INDEX 01 01:02:12
  TRACK 44 AUDIO
    TITLE "3:cjc021_5012"
    INDEX 01 01:03:49
  TRACK 45 AUDIO
    TITLE "0:"
    INDEX 01 01:04:62
  TRACK 46 AUDIO
    TITLE "4:cjc021_5013"
    INDEX 01 01:06:40
  TRACK 47 AUDIO
    TITLE "0:"
    INDEX 01 01:07:53
  TRACK 48 AUDIO
    TITLE "5:cjc021_5014"
    INDEX 01 01:08:13
  TRACK 49 AUDIO
    TITLE "0:"
    INDEX 01 01:10:47
  TRACK 50 AUDIO
    TITLE "3:cjc021_5015"
    INDEX 01 01:12:07
  TRACK 51 AUDIO
    TITLE "0:"
    INDEX 01 01:13:30
  TRACK 52 AUDIO
    TITLE "4:cjc021_5016"
    INDEX 01 01:15:05
  TRACK 53 AUDIO
    TITLE "0:"
    INDEX 01 01:16:28
  TRACK 54 AUDIO
    TITLE "5:cjc021_5017"
    INDEX 01 01:16:63
  TRACK 55 AUDIO
    TITLE "0:"
    INDEX 01 01:20:44
  TRACK 56 AUDIO
    TITLE "3:cjc021_5018"
    INDEX 01 01:22:03
  TRACK 57 AUDIO
    TITLE "0:"
    INDEX 01 01:23:30
  TRACK 58 AUDIO
    TITLE "4:cjc021_5019"
    INDEX 01 01:25:06
  TRACK 59 AUDIO
    TITLE "0:"
    INDEX 01 01:26:32
  TRACK 60 AUDIO
    TITLE "5:cjc021_5020"
    INDEX 01 01:26:68
  TRACK 61 AUDIO
    TITLE "0:"
    INDEX 01 01:30:13
